<!DOCTYPE svg PUBLIC "-//W3C//DTD SVG 20010904//EN" "http://www.w3.org/TR/2001/REC-SVG-20010904/DTD/svg10.dtd">
<svg version="1.0" xmlns="http://www.w3.org/2000/svg" width="320px" height="320px" viewBox="0 0 3200 3200" preserveAspectRatio="xMidYMid meet">
<g id="layer101" fill="#2f3699" stroke="none">
<path d="M0 1600 l0 -1600 1600 0 1600 0 0 1600 0 1600 -1600 0 -1600 0 0 -1600z"/>
</g>
<g id="layer102" fill="#22b14c" stroke="none">
<path d="M0 1600 l0 -1600 1600 0 1600 0 0 1600 0 1600 -1600 0 -1600 0 0 -1600z m1965 888 c307 -285 345 -323 327 -331 -18 -8 -59 26 -304 253 -407 378 -428 400 -383 400 7 0 170 -145 360 -322z m85 -572 c0 -3 -5 -8 -12 -12 -7 -4 -8 -3 -4 4 7 12 16 16 16 8z m-50 -40 c0 -3 -5 -8 -12 -12 -7 -4 -8 -3 -4 4 7 12 16 16 16 8z m-50 -40 c0 -3 -5 -8 -12 -12 -7 -4 -8 -3 -4 4 7 12 16 16 16 8z m-40 -30 c0 -2 -8 -10 -17 -17 -16 -13 -17 -12 -4 4 13 16 21 21 21 13z m-50 -40 c0 -2 -8 -10 -17 -17 -16 -13 -17 -12 -4 4 13 16 21 21 21 13z m-50 -40 c0 -2 -8 -10 -17 -17 -16 -13 -17 -12 -4 4 13 16 21 21 21 13z m-40 -30 c0 -2 -8 -10 -17 -17 -16 -13 -17 -12 -4 4 13 16 21 21 21 13z m-50 -40 c0 -2 -8 -10 -17 -17 -16 -13 -17 -12 -4 4 13 16 21 21 21 13z m-50 -40 c0 -2 -8 -10 -17 -17 -16 -13 -17 -12 -4 4 13 16 21 21 21 13z m525 -576 c3 -5 4 -10 1 -10 -3 0 -8 5 -11 10 -3 6 -4 10 -1 10 3 0 8 -4 11 -10z m133 -93 c10 17 11 17 18 0 4 -11 1 -24 -7 -32 -8 -8 -176 -142 -373 -299 -276 -219 -363 -283 -373 -275 -7 6 -10 15 -8 20 3 4 165 135 360 290 309 245 354 284 343 298 -9 11 -6 11 9 -2 20 -18 22 -18 31 0z"/>
</g>
<g id="layer103" fill="#ed1c24" stroke="none">
<path d="M0 1600 l0 -1600 1600 0 1600 0 0 1600 0 1600 -1600 0 -1600 0 0 -1600z m1628 1203 c9 -10 167 -157 351 -328 292 -271 331 -310 313 -318 -17 -8 -65 32 -344 291 l-323 301 -2 -552 c-2 -304 -5 -558 -8 -566 -4 -11 -8 -11 -20 -1 -13 11 -15 88 -15 561 0 422 3 554 13 569 10 17 9 22 -2 29 -14 9 -7 31 10 31 5 0 17 -8 27 -17z m422 -887 c0 -3 -5 -8 -12 -12 -7 -4 -8 -3 -4 4 7 12 16 16 16 8z m-50 -40 c0 -3 -5 -8 -12 -12 -7 -4 -8 -3 -4 4 7 12 16 16 16 8z m-50 -40 c0 -3 -5 -8 -12 -12 -7 -4 -8 -3 -4 4 7 12 16 16 16 8z m-40 -30 c0 -2 -8 -10 -17 -17 -16 -13 -17 -12 -4 4 13 16 21 21 21 13z m-50 -40 c0 -2 -8 -10 -17 -17 -16 -13 -17 -12 -4 4 13 16 21 21 21 13z m-50 -40 c0 -2 -8 -10 -17 -17 -16 -13 -17 -12 -4 4 13 16 21 21 21 13z m-40 -30 c0 -2 -8 -10 -17 -17 -16 -13 -17 -12 -4 4 13 16 21 21 21 13z m-50 -40 c0 -2 -8 -10 -17 -17 -16 -13 -17 -12 -4 4 13 16 21 21 21 13z m-50 -40 c0 -2 -8 -10 -17 -17 -16 -13 -17 -12 -4 4 13 16 21 21 21 13z m-50 -638 c0 -319 4 -578 8 -576 5 1 158 122 340 267 289 230 331 266 320 280 -8 10 -5 10 9 -3 20 -17 23 -17 29 -2 7 18 24 12 24 -9 0 -7 -163 -143 -362 -301 -200 -159 -369 -296 -376 -307 -35 -47 -37 -14 -34 634 2 630 2 632 22 614 20 -18 20 -32 20 -597z m575 62 c3 -5 4 -10 1 -10 -3 0 -8 5 -11 10 -3 6 -4 10 -1 10 3 0 8 -4 11 -10z"/>
</g>
<g id="layer104" fill="#6f3198" stroke="none">
<path d="M0 1600 l0 -1600 1600 0 1600 0 0 1600 0 1600 -1600 0 -1600 0 0 -1600z m1628 1203 c9 -10 169 -159 355 -331 185 -173 337 -320 337 -327 0 -8 -151 -134 -335 -281 -185 -147 -334 -272 -332 -278 2 -5 158 -150 348 -321 189 -170 345 -317 347 -326 2 -12 -111 -107 -360 -305 -200 -158 -369 -296 -376 -307 -35 -47 -37 -14 -34 633 2 556 4 631 17 620 26 -21 31 17 6 44 -21 22 -21 25 -21 569 0 420 3 552 13 567 10 17 9 22 -2 29 -14 9 -7 31 10 31 5 0 17 -8 27 -17z"/>
</g>
<g id="layer105" fill="#ffffff" stroke="none">
<path d="M0 1600 l0 -1600 1600 0 1600 0 0 1600 0 1600 -1600 0 -1600 0 0 -1600z m1628 1203 c9 -10 169 -159 355 -331 185 -173 337 -320 337 -327 0 -8 -151 -134 -335 -281 -185 -147 -334 -272 -332 -278 2 -5 158 -150 348 -321 189 -170 345 -317 347 -326 2 -12 -111 -107 -360 -305 -200 -158 -369 -297 -377 -307 -8 -11 -17 -15 -22 -10 -6 6 -9 272 -9 641 l0 631 -350 276 c-192 152 -352 280 -355 285 -3 5 151 149 342 321 192 171 354 320 362 330 17 24 26 24 49 2z"/>
<path d="M1620 2197 c0 -306 2 -557 5 -557 5 0 608 471 633 495 11 10 -38 60 -270 275 -156 145 -302 282 -325 304 l-43 40 0 -557z"/>
<path d="M1251 2448 l-324 -292 38 -30 c21 -17 168 -133 327 -258 l288 -228 0 550 c0 303 -1 550 -2 550 -2 0 -149 -131 -327 -292z"/>
<path d="M1620 977 c0 -317 2 -577 5 -577 5 0 639 502 663 525 11 10 -42 63 -300 295 -172 156 -325 295 -340 309 l-28 25 0 -577z"/>
</g>


</svg>